<?xml version="1.0" standalone="no"?>
<!DOCTYPE svg PUBLIC "-//W3C//DTD SVG 20010904//EN"
 "http://www.w3.org/TR/2001/REC-SVG-20010904/DTD/svg10.dtd">
<svg version="1.0" xmlns="http://www.w3.org/2000/svg"
 width="313.000000pt" height="313.000000pt" viewBox="0 0 313.000000 313.000000"
 preserveAspectRatio="xMidYMid meet">
<metadata>
Created by potrace 1.14, written by Peter Selinger 2001-2017
</metadata>
<g transform="translate(0.000000,313.000000) scale(0.100000,-0.100000)"
fill="#000000" stroke="none">
<path d="M1620 2684 c-90 -19 -173 -50 -250 -93 -62 -34 -69 -36 -170 -37 -58
-1 -114 -4 -125 -7 -124 -31 -176 -53 -260 -113 -195 -137 -317 -378 -310
-606 3 -77 21 -116 77 -161 31 -25 48 -31 98 -33 34 -2 71 1 84 6 71 27 124
18 152 -26 15 -23 18 -54 19 -208 1 -99 5 -210 10 -246 9 -76 44 -189 81 -263
117 -230 351 -406 604 -452 56 -11 224 -13 272 -5 23 5 57 10 73 13 58 9 195
69 269 117 183 120 304 291 360 510 24 92 25 106 25 475 0 392 -5 452 -44 570
-95 281 -337 493 -640 561 -61 13 -260 12 -325 -2z"/>
</g>
</svg>
